<svg width="331" height="226" viewBox="0 0 331 226" fill="none" xmlns="http://www.w3.org/2000/svg">
<path d="M208.242 27.9209L245.997 0.121094V149.998L208.242 123.045V27.9209Z" fill="#B8753A"/>
<path d="M95.9961 0L160.664 47.6223L130.945 69.137L95.9961 44.238V0Z" fill="#B8753A"/>
<path d="M95.9961 57.4128L161.812 103.827L95.9961 149.998V57.4128Z" fill="#B8753A"/>
<path d="M142 75.8852L211 26V68.6002L171.948 97L142 75.8852Z" fill="#B8753A"/>
<path d="M4.9168 212.999V177.999H10.2668L25.5668 203.549H22.7668L37.8168 177.999H43.1668L43.2168 212.999H37.0668L37.0168 187.649H38.3168L25.5168 208.999H22.6168L9.6168 187.649H11.1168V212.999H4.9168ZM67.7207 212.999L83.4707 177.999H89.8707L105.671 212.999H98.8707L85.3207 181.449H87.9207L74.4207 212.999H67.7207ZM74.9707 204.899L76.7207 199.799H95.6207L97.3707 204.899H74.9707ZM130.122 212.999V177.999H135.472L157.422 204.949H154.772V177.999H161.222V212.999H155.872L133.922 186.049H136.572V212.999H130.122ZM190.6 212.999V177.999H205.9C209.7 177.999 213.034 178.732 215.9 180.199C218.767 181.665 221 183.699 222.6 186.299C224.2 188.899 225 191.965 225 195.499C225 198.999 224.2 202.065 222.6 204.699C221 207.299 218.767 209.332 215.9 210.799C213.034 212.265 209.7 212.999 205.9 212.999H190.6ZM197.1 207.499H205.6C208.234 207.499 210.5 206.999 212.4 205.999C214.334 204.999 215.817 203.599 216.85 201.799C217.917 199.999 218.45 197.899 218.45 195.499C218.45 193.065 217.917 190.965 216.85 189.199C215.817 187.399 214.334 185.999 212.4 184.999C210.5 183.999 208.234 183.499 205.6 183.499H197.1V207.499ZM257.909 192.549H275.309V197.899H257.909V192.549ZM258.409 207.549H278.159V212.999H251.909V177.999H277.459V183.449H258.409V207.549ZM312.505 212.999V183.499H300.905V177.999H330.605V183.499H319.005V212.999H312.505Z" fill="#B8753A"/>
</svg>
