<svg width="662" height="287" viewBox="0 0 662 287" fill="none" xmlns="http://www.w3.org/2000/svg">
<path d="M374.242 27.9209L411.997 0.121094V149.998L374.242 123.045V27.9209Z" fill="#B8753A"/>
<path d="M261.996 0L326.664 47.6223L296.945 69.137L261.996 44.238V0Z" fill="#B8753A"/>
<path d="M261.996 57.4126L327.812 103.826L261.996 149.998V57.4126Z" fill="#B8753A"/>
<path d="M308 75.8852L377 26V68.6002L337.948 97L308 75.8852Z" fill="#B8753A"/>
<path d="M9.83359 261.999V191.999H20.5336L51.1336 243.099H45.5336L75.6336 191.999H86.3336L86.4336 261.999H74.1336L74.0336 211.299H76.6336L51.0336 253.999H45.2336L19.2336 211.299H22.2336V261.999H9.83359ZM135.441 261.999L166.941 191.999H179.741L211.341 261.999H197.741L170.641 198.899H175.841L148.841 261.999H135.441ZM149.941 245.799L153.441 235.599H191.241L194.741 245.799H149.941ZM260.244 261.999V191.999H270.944L314.844 245.899H309.544V191.999H322.444V261.999H311.744L267.844 208.099H273.144V261.999H260.244ZM381.201 261.999V191.999H411.801C419.401 191.999 426.067 193.465 431.801 196.399C437.534 199.332 442.001 203.399 445.201 208.599C448.401 213.799 450.001 219.932 450.001 226.999C450.001 233.999 448.401 240.132 445.201 245.399C442.001 250.599 437.534 254.665 431.801 257.599C426.067 260.532 419.401 261.999 411.801 261.999H381.201ZM394.201 250.999H411.201C416.467 250.999 421.001 249.999 424.801 247.999C428.667 245.999 431.634 243.199 433.701 239.599C435.834 235.999 436.901 231.799 436.901 226.999C436.901 222.132 435.834 217.932 433.701 214.399C431.634 210.799 428.667 207.999 424.801 205.999C421.001 203.999 416.467 202.999 411.201 202.999H394.201V250.999ZM515.818 221.099H550.618V231.799H515.818V221.099ZM516.818 251.099H556.318V261.999H503.818V191.999H554.918V202.899H516.818V251.099ZM625.01 261.999V202.999H601.81V191.999H661.21V202.999H638.01V261.999H625.01Z" fill="#B8753A"/>
</svg>
