<svg width="478" height="226" viewBox="0 0 478 226" fill="none" xmlns="http://www.w3.org/2000/svg">
<path d="M282.242 27.9209L319.997 0.121094V149.998L282.242 123.045V27.9209Z" fill="#B8753A"/>
<path d="M169.996 0L234.664 47.6223L204.945 69.137L169.996 44.238V0Z" fill="#B8753A"/>
<path d="M169.996 57.4126L235.812 103.826L169.996 149.998V57.4126Z" fill="#B8753A"/>
<path d="M216 75.8852L285 26V68.6002L245.948 97L216 75.8852Z" fill="#B8753A"/>
<path d="M4.76445 212.999V177.999H10.1145L25.4145 203.549H22.6145L37.6645 177.999H43.0145L43.0645 212.999H36.9145L36.8645 187.649H38.1645L25.3645 208.999H22.4645L9.46445 187.649H10.9645V212.999H4.76445ZM67.5684 212.999L83.3184 177.999H89.7184L105.518 212.999H98.7184L85.1684 181.449H87.7684L74.2684 212.999H67.5684ZM74.8184 204.899L76.5684 199.799H95.4684L97.2184 204.899H74.8184ZM129.97 212.999V177.999H135.32L157.27 204.949H154.62V177.999H161.07V212.999H155.72L133.77 186.049H136.42V212.999H129.97ZM190.448 212.999V177.999H205.748C209.548 177.999 212.881 178.732 215.748 180.199C218.615 181.665 220.848 183.699 222.448 186.299C224.048 188.899 224.848 191.965 224.848 195.499C224.848 198.999 224.048 202.065 222.448 204.699C220.848 207.299 218.615 209.332 215.748 210.799C212.881 212.265 209.548 212.999 205.748 212.999H190.448ZM196.948 207.499H205.448C208.081 207.499 210.348 206.999 212.248 205.999C214.181 204.999 215.665 203.599 216.698 201.799C217.765 199.999 218.298 197.899 218.298 195.499C218.298 193.065 217.765 190.965 216.698 189.199C215.665 187.399 214.181 185.999 212.248 184.999C210.348 183.999 208.081 183.499 205.448 183.499H196.948V207.499ZM257.757 192.549H275.157V197.899H257.757V192.549ZM258.257 207.549H278.007V212.999H251.757V177.999H277.307V183.449H258.257V207.549ZM312.353 212.999V183.499H300.753V177.999H330.453V183.499H318.853V212.999H312.353ZM355.12 213.349C353.986 213.349 353.02 212.965 352.22 212.199C351.42 211.399 351.02 210.399 351.02 209.199C351.02 207.932 351.42 206.932 352.22 206.199C353.02 205.432 353.986 205.049 355.12 205.049C356.253 205.049 357.22 205.432 358.02 206.199C358.82 206.932 359.22 207.932 359.22 209.199C359.22 210.399 358.82 211.399 358.02 212.199C357.22 212.965 356.253 213.349 355.12 213.349ZM401.15 213.499C398.483 213.499 396 213.065 393.7 212.199C391.433 211.299 389.45 210.049 387.75 208.449C386.083 206.815 384.783 204.899 383.85 202.699C382.917 200.499 382.45 198.099 382.45 195.499C382.45 192.899 382.917 190.499 383.85 188.299C384.783 186.099 386.1 184.199 387.8 182.599C389.5 180.965 391.483 179.715 393.75 178.849C396.017 177.949 398.5 177.499 401.2 177.499C404.067 177.499 406.683 177.999 409.05 178.999C411.417 179.965 413.417 181.415 415.05 183.349L410.85 187.299C409.583 185.932 408.167 184.915 406.6 184.249C405.033 183.549 403.333 183.199 401.5 183.199C399.667 183.199 397.983 183.499 396.45 184.099C394.95 184.699 393.633 185.549 392.5 186.649C391.4 187.749 390.533 189.049 389.9 190.549C389.3 192.049 389 193.699 389 195.499C389 197.299 389.3 198.949 389.9 200.449C390.533 201.949 391.4 203.249 392.5 204.349C393.633 205.449 394.95 206.299 396.45 206.899C397.983 207.499 399.667 207.799 401.5 207.799C403.333 207.799 405.033 207.465 406.6 206.799C408.167 206.099 409.583 205.049 410.85 203.649L415.05 207.649C413.417 209.549 411.417 210.999 409.05 211.999C406.683 212.999 404.05 213.499 401.15 213.499ZM456.946 213.499C454.212 213.499 451.696 213.049 449.396 212.149C447.096 211.249 445.096 209.999 443.396 208.399C441.696 206.765 440.379 204.865 439.446 202.699C438.512 200.499 438.046 198.099 438.046 195.499C438.046 192.899 438.512 190.515 439.446 188.349C440.379 186.149 441.696 184.249 443.396 182.649C445.096 181.015 447.096 179.749 449.396 178.849C451.696 177.949 454.196 177.499 456.896 177.499C459.629 177.499 462.129 177.949 464.396 178.849C466.696 179.749 468.696 181.015 470.396 182.649C472.096 184.249 473.412 186.149 474.346 188.349C475.279 190.515 475.746 192.899 475.746 195.499C475.746 198.099 475.279 200.499 474.346 202.699C473.412 204.899 472.096 206.799 470.396 208.399C468.696 209.999 466.696 211.249 464.396 212.149C462.129 213.049 459.646 213.499 456.946 213.499ZM456.896 207.799C458.662 207.799 460.296 207.499 461.796 206.899C463.296 206.299 464.596 205.449 465.696 204.349C466.796 203.215 467.646 201.915 468.246 200.449C468.879 198.949 469.196 197.299 469.196 195.499C469.196 193.699 468.879 192.065 468.246 190.599C467.646 189.099 466.796 187.799 465.696 186.699C464.596 185.565 463.296 184.699 461.796 184.099C460.296 183.499 458.662 183.199 456.896 183.199C455.129 183.199 453.496 183.499 451.996 184.099C450.529 184.699 449.229 185.565 448.096 186.699C446.996 187.799 446.129 189.099 445.496 190.599C444.896 192.065 444.596 193.699 444.596 195.499C444.596 197.265 444.896 198.899 445.496 200.399C446.129 201.899 446.996 203.215 448.096 204.349C449.196 205.449 450.496 206.299 451.996 206.899C453.496 207.499 455.129 207.799 456.896 207.799Z" fill="#B8753A"/>
</svg>
