<svg width="762" height="150" viewBox="0 0 762 150" fill="none" xmlns="http://www.w3.org/2000/svg">
<path d="M112.246 27.9209L150.001 0.121094V149.998L112.246 123.045V27.9209Z" fill="#B8753A"/>
<path d="M0 0L64.6676 47.6223L34.9486 69.137L0 44.238V0Z" fill="#B8753A"/>
<path d="M0 57.4126L65.8156 103.826L0 149.998V57.4126Z" fill="#B8753A"/>
<path d="M46.0039 75.8852L115.004 26V68.6002L75.9523 97L46.0039 75.8852Z" fill="#B8753A"/>
<path d="M209.834 111V41H220.534L251.134 92.1H245.534L275.634 41H286.334L286.434 111H274.134L274.034 60.3H276.634L251.034 103H245.234L219.234 60.3H222.234V111H209.834ZM315.441 111L346.941 41H359.741L391.341 111H377.741L350.641 47.9H355.841L328.841 111H315.441ZM329.941 94.8L333.441 84.6H371.241L374.741 94.8H329.941ZM420.244 111V41H430.944L474.844 94.9H469.544V41H482.444V111H471.744L427.844 57.1H433.144V111H420.244ZM521.201 111V41H551.801C559.401 41 566.067 42.4667 571.801 45.4C577.534 48.3333 582.001 52.4 585.201 57.6C588.401 62.8 590.001 68.9333 590.001 76C590.001 83 588.401 89.1333 585.201 94.4C582.001 99.6 577.534 103.667 571.801 106.6C566.067 109.533 559.401 111 551.801 111H521.201ZM534.201 100H551.201C556.467 100 561.001 99 564.801 97C568.667 95 571.634 92.2 573.701 88.6C575.834 85 576.901 80.8 576.901 76C576.901 71.1333 575.834 66.9333 573.701 63.4C571.634 59.8 568.667 57 564.801 55C561.001 53 556.467 52 551.201 52H534.201V100ZM635.818 70.1H670.618V80.8H635.818V70.1ZM636.818 100.1H676.318V111H623.818V41H674.918V51.9H636.818V100.1ZM725.01 111V52H701.81V41H761.21V52H738.01V111H725.01Z" fill="#B8753A"/>
</svg>
